<svg width="27" height="30" viewBox="0 0 27 30" fill="none" xmlns="http://www.w3.org/2000/svg">
<path d="M0.7 0.119997L1.49592 -1.71481L-1.3 -2.92765V0.119997H0.7ZM26.98 11.52H28.98V10.2075L27.7759 9.68519L26.98 11.52ZM26.98 18.42L27.7759 20.2548L28.98 19.7325V18.42H26.98ZM0.7 29.82H-1.3V32.8676L1.49592 31.6548L0.7 29.82ZM0.7 21.78L-0.0239648 19.9156L-1.3 20.4111V21.78H0.7ZM18.16 15L18.884 16.8644L23.664 15.0082L18.8895 13.1378L18.16 15ZM0.7 8.16H-1.3V9.52449L-0.0295223 10.0222L0.7 8.16ZM-0.0959202 1.9548L26.1841 13.3548L27.7759 9.68519L1.49592 -1.71481L-0.0959202 1.9548ZM24.98 11.52V18.42H28.98V11.52H24.98ZM26.1841 16.5852L-0.0959201 27.9852L1.49592 31.6548L27.7759 20.2548L26.1841 16.5852ZM2.7 29.82V21.78H-1.3V29.82H2.7ZM1.42396 23.6444L18.884 16.8644L17.436 13.1356L-0.0239648 19.9156L1.42396 23.6444ZM18.8895 13.1378L1.42952 6.2978L-0.0295223 10.0222L17.4305 16.8622L18.8895 13.1378ZM2.7 8.16V0.119997H-1.3V8.16H2.7Z" fill="#848484"/>
</svg>
